<svg xmlns="http://www.w3.org/2000/svg" viewBox="0 0 708.66 170.58"><defs><style>.cls-1,.cls-2{fill:#fff;}.cls-1{fill-rule:evenodd;}</style></defs><title>Asset 1</title><g id="Layer_2" data-name="Layer 2"><g id="Layer_1-2" data-name="Layer 1"><path class="cls-1" d="M102.44,92.31h35.62a3.86,3.86,0,0,1,0,7.71H102.44a3.86,3.86,0,0,1,0-7.71M98.23,22.22h20.94a2.48,2.48,0,0,1,2.21-1.87h23.44c1.33,0,2.42,1.4,2.42,3.12s-1.09,3.12-2.42,3.12H121.38a2.6,2.6,0,0,1-2.31-2.21H98.31c-.27,1.28-1.08,2.21-2,2.21H75.6c-1.17,0-2.13-1.41-2.13-3.12s1-3.12,2.13-3.12H96.27C97.15,20.35,97.9,21.12,98.23,22.22Zm28.7,61.49h20.84c.3-1.19,1.09-2,2-2h20.67c1.18,0,2.14,1.41,2.14,3.13s-1,3.12-2.14,3.12H149.77c-.91,0-1.7-.86-2-2H126.93a2.55,2.55,0,0,1-2.27,2H101.22c-1.33,0-2.42-1.41-2.42-3.12s1.09-3.13,2.42-3.13h23.44A2.55,2.55,0,0,1,126.93,83.71Zm-99-12.12h77.24c.21-1.11.69-1.9,1.24-1.9h13.08c.55,0,1,.79,1.24,1.9h51.85c.27-1.19,1-2,1.8-2h18.57c1.05,0,1.91,1.4,1.91,3.12s-.86,3.12-1.91,3.12H174.34c-.82,0-1.53-.85-1.8-2h-51.8c-.18,1.26-.69,2.19-1.29,2.19H106.37c-.6,0-1.11-.93-1.29-2.19H27.72c-.32,1-1,1.67-1.7,1.67H10.47A45.64,45.64,0,0,1,6,70.31a1.78,1.78,0,0,1,1.47-1.13H26C26.93,69.18,27.69,70.21,27.89,71.59ZM40.3,59.1h73.6c.15-1.1.47-1.88.85-1.88h9c.38,0,.7.78.84,1.88H190.9c.27-1.18,1-2,1.79-2h18.57c1.05,0,1.92,1.41,1.92,3.12s-.87,3.12-1.92,3.12H192.69c-.82,0-1.52-.85-1.79-2H124.61c-.12,1.27-.47,2.2-.88,2.2h-9c-.41,0-.76-.93-.88-2.2H40.3c-.27,1.19-1,2-1.79,2H19.94c-1.05,0-1.92-1.4-1.92-3.12s.87-3.12,1.92-3.12H38.51C39.33,57.06,40,57.92,40.3,59.1ZM55,46.8h66.91c.11-1.29.47-2.24.88-2.24h9c.42,0,.77.95.89,2.24h73.08c.27-1.19,1-2,1.79-2h18.57c1.06,0,1.92,1.41,1.92,3.12S227.19,51,226.13,51H207.56c-.82,0-1.52-.85-1.79-2H132.64c-.15,1.09-.47,1.84-.84,1.84h-9c-.37,0-.69-.75-.84-1.84h-67c-.29,1.1-1,1.86-1.74,1.86H34.62c-1,0-1.91-1.4-1.91-3.12s.86-3.12,1.91-3.12H53.2C54.06,44.58,54.79,45.52,55,46.8ZM238.38,35.13c.1.13.21.25.31.37Zm-1.11-1.25.39.43ZM123,.15c51.15,0,95,13.61,113.55,33l-.28-.29H219.35a2.48,2.48,0,0,0-2.17,2H141.49c-.14-1.38-.67-2.42-1.31-2.42H127.1c-.64,0-1.17,1-1.31,2.42H73.42c-.2-1.38-1-2.41-1.87-2.41H53c-1,0-1.91,1.41-1.91,3.12S51.93,38.7,53,38.7H71.55c.74,0,1.38-.68,1.7-1.67h52.66c.23,1,.68,1.66,1.19,1.66h13.08c.52,0,1-.67,1.19-1.66h75.81a2.48,2.48,0,0,0,2.17,2h22l-.06-.1A26.72,26.72,0,0,1,246,53.76c0,29.61-55.07,53.61-123,53.61S0,83.37,0,53.76,55.07.15,123,.15Zm-14.32,7H144.3A3.77,3.77,0,0,1,148,11a3.78,3.78,0,0,1-3.67,3.86H108.69A3.79,3.79,0,0,1,105,11,3.78,3.78,0,0,1,108.69,7.13Z"/><path class="cls-2" d="M585.63,62.45,570.07,22.9a2.1,2.1,0,0,0-3.94,0l-16,39.55ZM438,89.57l55.46.18c10.38,0,8.93-3.37,8.93-11.71,0-9.24-4.1-10.13-19-14.93l-20.78-6.7C443,50.06,436.18,41.12,436.18,26.92c0-16.41,10.9-25.7,33-25.7h46.72l-.18,15.94H469c-9.36,0-14.49,1.08-15.14,9.17-.2,2.58-.32,7.83,4.55,10.81,4.5,2.75,13.91,4.56,25.19,9l12,4.72c9.94,4.71,24,6.26,24.45,27.33.7,30.83-22.3,27.94-37.77,27.87L438,105.87Zm-46.7.37c21.11,0,24-21.58,24-37.56,0-16.2-4.56-35.69-25.46-35.69H370.67c-19.47,0-22.88,21.16-22.88,35.69,0,14.37,2.41,37.56,22.14,37.56Zm4.61,16.21L366.34,106c-26.67-.1-36.89-30.22-36.89-51.74,0-21.23,8.75-54.3,35.47-54.3h31.42c26.77,0,35.47,33.14,35.47,54.38C431.81,77.44,422.66,106.15,395.93,106.15Zm-60-88H296v88H278.78v-88H238.49V1.32H336ZM708.66,84.8c0,12.5-.67,22.58-13.14,22.82-9.46.18-16.21-12.21-24.81-26.21L636,25l-.39,81.22H618.46v0H602.82l-11-27.91H543.78l-11.27,27.91-18.78-.37L554.84,9.71c5-11.61,20.91-12.12,25.88-.55L618.46,97V22.58c0-13.5,1.61-21.08,13.9-21.08,8.7,0,12.26,5.73,18.37,15.51l41.55,66.55-.21-82.24h16.59Z"/><path class="cls-2" d="M48.37,155.94H45.94a8.35,8.35,0,0,1-7.18-3.58,6.49,6.49,0,0,1-6.29,3.58H7.84a7.36,7.36,0,0,1-5.68-2.31A8.15,8.15,0,0,1,0,147.77v-1.93H4v.94c0,2.93,1.38,4.42,4.2,4.42H32c2.26,0,3.36-.67,3.36-1.94a5.89,5.89,0,0,0-.94-2.59l-2.2-4,3.53-2.32,2.37,4.58a16.33,16.33,0,0,0,2.93,4.25,6.76,6.76,0,0,0,5,2h2.32Zm-31-13.08H13.14v-4.25h4.25Zm5.8,0H18.94v-4.25h4.25Zm49,9.94L70,155.94H47V151.2H65l-7.79-7a5.34,5.34,0,0,0-4-1.88H50.08v-4.08h4a7,7,0,0,1,4.8,2.09Zm-17.56-20H50.3v-4.25h4.31Zm26.22,23.13H76.31V124.69h4.52Zm27-6.57a5.89,5.89,0,0,1-2.38,5.08,9.33,9.33,0,0,1-5.57,1.49h-7a8.74,8.74,0,0,1-7.89-4.36l2.87-2.87a8,8,0,0,0,2.21,2.1,5.21,5.21,0,0,0,2.37.39h7.73c2.27,0,3.37-.61,3.37-1.83a5.62,5.62,0,0,0-1.6-2.59l-9.06-10.6,3.15-3,9,10.71C106.84,146.06,107.78,147.88,107.78,149.37Zm32.9,6.57h-2.43a7.48,7.48,0,0,1-6-2.76,10,10,0,0,1-1.6,3.65q-4.31,6.28-18.55,13.75l-2-3.76c8.83-4.69,14.63-8.94,17.28-12.81a5.13,5.13,0,0,0,.16-6.29l-2.7-5,3.7-2.32,3.14,6.07c1.66,3.09,3.92,4.7,6.8,4.7h2.2Zm10.11-6.79a6.81,6.81,0,0,1-1.55,4.48,6.89,6.89,0,0,1-5.57,2.31H139.3V151.2h4.31c2,0,3-.78,3-2.21a4.19,4.19,0,0,0-.66-2.1l-2.43-4.42L147,140c1.38,2.54,2.26,4.14,2.59,4.86A10.92,10.92,0,0,1,150.79,149.15Zm-6.13,15.74h-4.25v-4.25h4.25Zm2.87,5.46h-4.31V166.1h4.31Zm2.93-5.46h-4.31v-4.25h4.31Zm37.76-15.46q0,9.69-20,19.32l-2.1-3.59a77.59,77.59,0,0,0,8.94-4.91c4.36-2.87,7.29-5.58,8.67-8.17h-3.26a7.43,7.43,0,0,1-5.52-2,7.55,7.55,0,0,1-1.93-5.52,6,6,0,0,1,1.93-4.42,6.31,6.31,0,0,1,4.53-1.82,7.67,7.67,0,0,1,5.47,2.38C187.17,142.75,188.22,145.67,188.22,149.43Zm-4.19-2a5.15,5.15,0,0,0-1.77-3.59,4.54,4.54,0,0,0-2.76-1.27,3.13,3.13,0,0,0-1.93.66,1.93,1.93,0,0,0-1,1.66c0,1.71,1.05,2.54,3.15,2.54Zm56.75,8.55h-3.42a6,6,0,0,1,1.49,3.76c0,2.32-1.82,4.58-5.46,6.84a25.86,25.86,0,0,1-14.08,3.81c-4.75,0-8.39-1.38-10.88-4.19a13.09,13.09,0,0,1-3.2-9.06,21.4,21.4,0,0,1,.88-7l3.54,1a20.66,20.66,0,0,0-.67,4.64,10.53,10.53,0,0,0,1.66,6c1.77,2.65,4.75,4,8.89,4a26.49,26.49,0,0,0,7.67-1.16,15.94,15.94,0,0,0,6.74-3.65,1.94,1.94,0,0,0,.61-1.21c0-.66-.56-1.38-1.66-2-1.71-1.11-5.47-2-11.15-2.76l1.1-3.7h17.94ZM260.94,128l-14.52,4.25c-1.16.33-1.77.77-1.77,1.38a5.49,5.49,0,0,0,.72,2.15l4.58,8.78c1.44,2.82,3,4.75,4.58,5.69a8.69,8.69,0,0,0,4.31.94h1.33v4.74h-2a9.23,9.23,0,0,1-4.14-1.1,8.49,8.49,0,0,1-3.26-2.71q-1.74,3.81-7.62,3.81h-3.81V151.2h4c2.49,0,3.76-.72,3.76-2.16a7.57,7.57,0,0,0-1-3.25l-4.75-9.17a7,7,0,0,1-.83-3.09c0-2.32,1.44-3.92,4.25-4.75l14.69-4.36Zm9.33,21.14a6.81,6.81,0,0,1-1.55,4.48,6.89,6.89,0,0,1-5.57,2.31h-4.36V151.2h4.3c2,0,3-.78,3-2.21a4.19,4.19,0,0,0-.66-2.1l-2.48-4.42,3.53-2.48c1.38,2.54,2.26,4.19,2.59,4.86A10.92,10.92,0,0,1,270.27,149.15ZM267,136.34h-4.31v-4.25H267Zm19.32,19.6h-3.75q-8.11,0-8.12-9.77V124.69h4.53v21.15a7.52,7.52,0,0,0,.77,3.87,3.91,3.91,0,0,0,3.53,1.49h3Zm10.16-6.79a6.85,6.85,0,0,1-1.54,4.48,6.92,6.92,0,0,1-5.58,2.31H285V151.2h4.3c2,0,3-.78,3-2.21a4.19,4.19,0,0,0-.66-2.1l-2.43-4.42,3.48-2.48c1.38,2.54,2.27,4.14,2.6,4.86A11,11,0,0,1,296.44,149.15ZM293,164.94h-4.25v-4.25H293ZM347.24,138l-1.72,3.42a9.81,9.81,0,0,0-4.19-1.1c-2.49,0-5,1.43-7.4,4.31a2.27,2.27,0,0,0-.61,1.38c0,.77.5,1.21,1.44,1.32l7.45.5c2.87.22,4.31,1.76,4.31,4.58,0,2.43-1.77,5-5.36,7.79a22,22,0,0,1-13.86,4.69c-4.14,0-7.45-1-9.93-3-2.71-2.15-4.09-5.3-4.09-9.33a19.52,19.52,0,0,1,1.33-7.4l3.31,1.11a18.52,18.52,0,0,0-.94,4.91c0,6.13,3.53,9.17,10.66,9.17A23.09,23.09,0,0,0,335.2,159a13.74,13.74,0,0,0,7-4.91,2.36,2.36,0,0,0,.49-1.22c0-.49-.44-.77-1.27-.77a58.52,58.52,0,0,1-7.62-.39c-3.09-.71-4.63-2.32-4.63-4.8,0-2.32,1.38-4.69,4.19-7.18s5.25-3.59,7.57-3.59A11.28,11.28,0,0,1,347.24,138Zm16.28,17.94h-3.75q-8.11,0-8.12-9.77V124.69h4.53v21.15a7.62,7.62,0,0,0,.77,3.87,3.94,3.94,0,0,0,3.54,1.49h3Zm25.35-3.14a5.55,5.55,0,0,1-1.77,4.08,5.82,5.82,0,0,1-4.2,1.66,15.48,15.48,0,0,1-6-1.71,27.3,27.3,0,0,1-4.48-2.43,16.46,16.46,0,0,1-7.34,1.54H362.2V151.2H364c2.87,0,4.47-.06,4.86-.11a10.44,10.44,0,0,1-2.93-7.57,7.2,7.2,0,0,1,1.6-4.36,7.59,7.59,0,0,1,4.91-3l-2.53-2.43,3.25-2.71a91.78,91.78,0,0,1,8.06,8C386.33,144.85,388.87,149.43,388.87,152.8Zm-11.1-9.17a3.36,3.36,0,0,0-1.38-2.65,4.81,4.81,0,0,0-2.87-.94,4,4,0,0,0-2.76,1.05,3.27,3.27,0,0,0-1.27,2.54,7,7,0,0,0,3.64,6C376.22,148.38,377.77,146.39,377.77,143.63Zm7.34,8.56c0-.77-.55-2-1.71-3.64a24.92,24.92,0,0,0-2.81-3.48,6.42,6.42,0,0,1-1.44,4.3,7.86,7.86,0,0,1-2.7,2.49c2.7,1.77,4.85,2.65,6.51,2.65C384.4,154.51,385.11,153.74,385.11,152.19Zm27.67-11a8.85,8.85,0,0,1,1,4.2,10.87,10.87,0,0,1-2,6.13q-4.3,6.45-18.55,13.8l-2-3.75c8.78-4.64,14.52-9,17.22-12.87a5.65,5.65,0,0,0,1.16-3.2,6.41,6.41,0,0,0-.88-3.09l-2.76-4.92,3.7-2.26Zm17.11,14.74h-3.75q-8.11,0-8.12-9.77V124.69h4.53v21.15a7.52,7.52,0,0,0,.77,3.87,3.91,3.91,0,0,0,3.53,1.49h3ZM450.1,128l-14.52,4.25c-1.16.33-1.77.77-1.77,1.38a5.49,5.49,0,0,0,.72,2.15l4.58,8.78c1.44,2.82,3,4.75,4.59,5.69a8.62,8.62,0,0,0,4.3.94h1.33v4.74h-2a9.23,9.23,0,0,1-4.14-1.1,8.49,8.49,0,0,1-3.26-2.71q-1.74,3.81-7.62,3.81h-3.81V151.2h4c2.49,0,3.76-.72,3.76-2.16a7.44,7.44,0,0,0-1.05-3.25l-4.75-9.17a7,7,0,0,1-.83-3.09c0-2.32,1.44-3.92,4.25-4.75l14.69-4.36Zm24.51,24.79a5.54,5.54,0,0,1-1.76,4.08,5.82,5.82,0,0,1-4.2,1.66,15.51,15.51,0,0,1-6-1.71,27.58,27.58,0,0,1-4.47-2.43,16.46,16.46,0,0,1-7.34,1.54H448V151.2h1.76c2.87,0,4.48-.06,4.86-.11a10.47,10.47,0,0,1-2.92-7.57,7.2,7.2,0,0,1,1.6-4.36,7.56,7.56,0,0,1,4.91-3l-2.54-2.43,3.26-2.71a91.78,91.78,0,0,1,8.06,8C472.07,144.85,474.61,149.43,474.61,152.8Zm-11.09-9.17a3.36,3.36,0,0,0-1.38-2.65,4.83,4.83,0,0,0-2.87-.94,4,4,0,0,0-2.77,1.05,3.3,3.3,0,0,0-1.27,2.54,6.67,6.67,0,0,0,1,3.48,6.47,6.47,0,0,0,2.65,2.54C462,148.38,463.52,146.39,463.52,143.63Zm7.34,8.56c0-.77-.55-2-1.71-3.64a24.91,24.91,0,0,0-2.82-3.48,6.4,6.4,0,0,1-1.43,4.3,8,8,0,0,1-2.71,2.49c2.71,1.77,4.86,2.65,6.52,2.65C470.14,154.51,470.86,153.74,470.86,152.19Zm12.53,3.75h-4.52V124.69h4.52ZM507.3,141.2a8.75,8.75,0,0,1,1.05,4.2,10.87,10.87,0,0,1-2,6.13Q502,158,487.75,165.33l-2-3.75c8.78-4.64,14.52-9,17.23-12.87a5.72,5.72,0,0,0,1.16-3.2,6.43,6.43,0,0,0-.89-3.09l-2.76-4.92,3.7-2.26Zm37.16,7.35a6.42,6.42,0,0,1-3.15,5.79,11.82,11.82,0,0,1-6.29,1.6q-9.78,0-9.78-9.77a9.93,9.93,0,0,1,1.55-5.57,5.43,5.43,0,0,1,4.8-2.77c2.49,0,5.19,1.11,8.12,3.26C542.86,143.47,544.46,146,544.46,148.55Zm-3.87-.17c0-1.27-1.21-2.71-3.59-4.31-2.2-1.49-3.92-2.2-5.08-2.2a2.47,2.47,0,0,0-2.2,1.65,7,7,0,0,0-.61,2.87,4.19,4.19,0,0,0,1.71,3.65,6.32,6.32,0,0,0,4,1.16Q540.59,151.2,540.59,148.38Zm40.69,7.56h-1.43a9.64,9.64,0,0,1-7.9-3.7c-.82,2.43-3.2,3.7-7.06,3.7h-8a10.25,10.25,0,0,1-4.69-1.1,6.91,6.91,0,0,1-3.48-3.26l2.65-2.81c1.38,1.6,2.82,2.43,4.31,2.43H565c2.26,0,3.37-.67,3.37-2a5.81,5.81,0,0,0-.61-2l-6.19-11.93,3.59-2.32,6.19,12.15a12.85,12.85,0,0,0,3.42,4.52,8.74,8.74,0,0,0,5.41,1.61h1.1Zm14.64,0h-1.44c-2.81,0-4.8-1-6-3.09a6.07,6.07,0,0,1-5.57,3.09h-3v-4.8h1.87c1.66,0,2.76-.33,3.21-1a8.2,8.2,0,0,0,.44-3.31v-5.69h4.14v4.42c0,2.32.44,3.86,1.27,4.64s2,1,3.86,1h1.22Zm-6.19-19.6h-4.3v-4.25h4.3Zm20.71,19.6H609c-2.81,0-4.8-1-6-3.09a6.07,6.07,0,0,1-5.57,3.09h-3v-4.8h1.87c1.66,0,2.76-.33,3.21-1a8.2,8.2,0,0,0,.44-3.31v-5.69h4.14v4.42c0,2.32.44,3.86,1.27,4.64s2,1,3.86,1h1.22Zm-6.19-19.6H600v-4.25h4.3ZM630.59,128l-14.52,4.25c-1.21.33-1.82.83-1.82,1.38a5.84,5.84,0,0,0,.77,2.15l4.53,8.84a10.37,10.37,0,0,1,1.43,4.58c0,4.47-2.7,6.73-8.17,6.73H609V151.2h4c2.49,0,3.76-.72,3.76-2.16a7.44,7.44,0,0,0-1-3.25L611,136.62a6.67,6.67,0,0,1-.83-3c0-2.37,1.44-4,4.25-4.8l14.69-4.36Zm25.62,27.93h-2a9,9,0,0,1-8.34-4.58,23.48,23.48,0,0,1-6.57.83c-5.79,0-8.72-2.37-8.72-7.12,0-1.71,1.33-3.54,3.87-5.41.49-.33,2.2-1.38,5.3-3.15l-1-2.32,3.37-2.32,4.69,12.7a14.78,14.78,0,0,0,2.38,4.69,7,7,0,0,0,5.24,1.94h1.77Zm-12.15-8.33-3-7.46a34.88,34.88,0,0,0-4.75,2.71c-1.27,1-1.93,2-1.93,3,0,1.38,1.71,2.09,5.19,2.09A21.85,21.85,0,0,0,644.06,147.61Zm22.2,1.54a6.57,6.57,0,0,1-7.07,6.79h-4.36V151.2h4.25c2,0,3-.78,3-2.21a4.64,4.64,0,0,0-.61-2.1L659,142.47,662.5,140c1.38,2.54,2.27,4.14,2.6,4.86A11.73,11.73,0,0,1,666.26,149.15Zm-5.85,15.79h-4.26v-4.25h4.26Zm5.85,0H662v-4.25h4.25Zm8.72-9h-4.53V124.69H675Zm23.91-14.74a8.75,8.75,0,0,1,1.05,4.2,10.88,10.88,0,0,1-2.05,6.13q-4.3,6.45-18.55,13.8l-2-3.75c8.78-4.64,14.52-9,17.23-12.87a5.72,5.72,0,0,0,1.16-3.2,6.43,6.43,0,0,0-.89-3.09L692,137.5l3.7-2.26Zm9.77,14.74h-4.53V124.69h4.53Z"/></g></g></svg>